<svg width="16" height="10" viewBox="0 0 16 10" fill="none" xmlns="http://www.w3.org/2000/svg">
<path d="M15.2069 4.864L10.6149 9.456L10.0789 8.896C9.96688 8.77867 9.92154 8.664 9.94288 8.552C9.96421 8.43467 10.0282 8.32267 10.1349 8.216L12.2629 6.096C12.5242 5.83467 12.7642 5.61867 12.9829 5.448C12.6949 5.48533 12.3935 5.51467 12.0789 5.536C11.7642 5.55733 11.4389 5.568 11.1029 5.568H0.974875V4.144H11.1029C11.4389 4.144 11.7642 4.15467 12.0789 4.176C12.3989 4.19733 12.7029 4.22933 12.9909 4.272C12.7722 4.096 12.5295 3.87733 12.2629 3.616L10.1189 1.48C10.0122 1.37333 9.94821 1.264 9.92688 1.152C9.90554 1.03467 9.95088 0.917333 10.0629 0.799999L10.5989 0.24L15.2069 4.864Z" fill="#7D7D7D"/>
</svg>
