<svg width="10" height="11" viewBox="0 0 10 11" fill="none" xmlns="http://www.w3.org/2000/svg">
<g clip-path="url(#clip0_761_46)">
<path d="M5.89224 5.5L9.93487 1.45759C10.0219 1.37047 10.0219 1.2293 9.93487 1.14218L9.35831 0.565314C9.31649 0.523597 9.2596 0.5 9.20051 0.5C9.1413 0.5 9.08452 0.523597 9.0427 0.565314L5.00018 4.60783L0.957664 0.565314C0.873915 0.481565 0.725694 0.48167 0.642156 0.565314L0.0657066 1.14218C-0.0214139 1.2293 -0.0214139 1.37047 0.0657066 1.45759L4.10822 5.5L0.0657066 9.54241C-0.0214139 9.62953 -0.0214139 9.77069 0.0657066 9.85782L0.642261 10.4347C0.684083 10.4764 0.740864 10.5 0.800068 10.5C0.859272 10.5 0.915948 10.4764 0.95777 10.4347L5.00029 6.39217L9.0428 10.4347C9.08463 10.4764 9.14151 10.5 9.20061 10.5C9.25971 10.5 9.3166 10.4764 9.35842 10.4347L9.93497 9.85782C10.022 9.77069 10.022 9.62953 9.93497 9.54241L5.89224 5.5Z" fill="#333333"/>
</g>
<defs>
<clipPath id="clip0_761_46">
<rect width="10" height="10" fill="white" transform="translate(0 0.5)"/>
</clipPath>
</defs>
</svg>
