<svg width="16" height="16" viewBox="0 0 16 16" fill="none" xmlns="http://www.w3.org/2000/svg">
<g clip-path="url(#clip0_1141_36)">
<path d="M8.00002 0C3.5888 0 0 3.5888 0 8.00007C0 12.4113 3.5888 16 8.00002 16C12.4112 16 16 12.4113 16 8.00007C16 3.5888 12.4112 0 8.00002 0ZM8.54796 14.8826V14.1276C8.54796 13.825 8.30259 13.5797 8.00007 13.5797C7.69754 13.5797 7.45217 13.825 7.45217 14.1276V14.8826C4.08117 14.6166 1.3835 11.919 1.11758 8.54796H1.87249C2.17506 8.54796 2.42038 8.30259 2.42038 8.00007C2.42038 7.6975 2.17506 7.45217 1.87249 7.45217H1.11753C1.38346 4.08112 4.08112 1.38346 7.45213 1.11753V1.87244C7.45213 2.17501 7.69745 2.42034 8.00002 2.42034C8.30259 2.42034 8.54792 2.17501 8.54792 1.87244V1.11753C11.9189 1.38346 14.6165 4.08112 14.8825 7.45213H14.1275C13.825 7.45213 13.5796 7.69745 13.5796 8.00002C13.5796 8.30255 13.825 8.54792 14.1275 8.54792H14.8825C14.6166 11.919 11.919 14.6166 8.54796 14.8826Z" fill="#4CAF50"/>
<path d="M9.54442 8.22536C9.61262 7.75421 9.46579 7.25769 9.10404 6.8959C8.8091 6.60096 8.41703 6.43856 7.99997 6.43856C7.92357 6.43856 7.84801 6.44413 7.77375 6.45487L5.42907 4.66101C5.21083 4.49406 4.90287 4.51457 4.70869 4.70875C4.51448 4.90296 4.49409 5.21092 4.66096 5.42912L6.45547 7.77473C6.38732 8.24587 6.53411 8.7424 6.89585 9.10418C7.19079 9.39913 7.58287 9.56157 7.99993 9.56157C8.07637 9.56157 8.15185 9.556 8.22618 9.54522L10.5708 11.3391C10.6697 11.4147 10.7869 11.4518 10.9036 11.4518C11.0447 11.4518 11.185 11.3976 11.2912 11.2914C11.4854 11.0971 11.5058 10.7892 11.3389 10.571L9.54442 8.22536Z" fill="#4CAF50"/>
</g>
<defs>
<clipPath id="clip0_1141_36">
<rect width="16" height="16" fill="white"/>
</clipPath>
</defs>
</svg>
