<svg width="20" height="20" viewBox="0 0 20 20" fill="none" xmlns="http://www.w3.org/2000/svg">
<path d="M14.6094 1.53206C12.9457 1.53206 11.4873 2.27389 10.3918 3.67741C10.2457 3.8646 10.1154 4.05186 10 4.23323C9.88457 4.05182 9.75434 3.8646 9.60824 3.67741C8.51273 2.27389 7.0543 1.53206 5.39062 1.53206C2.24781 1.53206 0 4.16358 0 7.32128C0 10.9319 2.95926 14.3348 9.59519 18.3549C9.71961 18.4302 9.85981 18.4679 10 18.4679C10.1402 18.4679 10.2804 18.4303 10.4048 18.3549C17.0407 14.3349 20 10.932 20 7.32132C20 4.16526 17.754 1.53206 14.6094 1.53206ZM16.3733 11.8172C14.9918 13.3587 12.9041 14.9818 10 16.7712C7.0959 14.9818 5.0082 13.3587 3.62668 11.8172C2.2377 10.2674 1.5625 8.79674 1.5625 7.32132C1.5625 5.04772 3.09898 3.09456 5.39062 3.09456C6.55766 3.09456 7.55273 3.60198 8.34824 4.60276C8.98434 5.40311 9.25234 6.22956 9.25422 6.23546C9.35598 6.56182 9.65816 6.78413 10 6.78413C10.3419 6.78413 10.6441 6.56186 10.7459 6.23546C10.7483 6.22757 11.0083 5.4269 11.6235 4.63878C12.4233 3.61409 13.4279 3.09452 14.6094 3.09452C16.9034 3.09452 18.4375 5.04956 18.4375 7.32128C18.4375 8.79671 17.7623 10.2673 16.3733 11.8172Z" fill="#4CAF50"/>
</svg>
