<svg width="8" height="15" viewBox="0 0 8 15" fill="none" xmlns="http://www.w3.org/2000/svg">
<path d="M7.16168 7.94177L5.75968 6.3952C5.67237 6.29892 5.59209 6.10054 5.58806 5.97047L5.53648 4.36575V4.31926C5.53648 4.07198 5.33525 3.87076 5.08798 3.87076H3.71558H3.17021C2.94925 3.87076 2.70272 4.02728 2.60869 4.22716L0.761177 8.15152C0.710049 8.26035 0.704966 8.3819 0.746825 8.49417C0.788685 8.60629 0.872404 8.6948 0.982286 8.74324L1.25452 8.86328C1.31253 8.88885 1.37442 8.90185 1.43856 8.90185C1.61452 8.90185 1.77837 8.80184 1.85626 8.64711L2.72171 6.92533V8.65593C2.71812 8.66594 2.71289 8.67506 2.7096 8.68523L1.24705 13.2656C1.1862 13.4563 1.20474 13.6571 1.29937 13.8308C1.39401 14.0046 1.55248 14.1289 1.74593 14.1811L1.8437 14.2076C1.90769 14.2249 1.97406 14.2337 2.04074 14.2337C2.37726 14.2337 2.68299 14.0123 2.78435 13.6951L4.15092 9.41523L4.6356 10.6024C4.75385 10.892 4.88152 11.3991 4.91441 11.71L5.14629 13.8959C5.18351 14.2459 5.46024 14.4998 5.80438 14.4998C5.86074 14.4998 5.918 14.493 5.97436 14.4794L6.07288 14.4554C6.46517 14.3605 6.74234 13.9575 6.69076 13.5573L6.34736 10.892C6.30371 10.5534 6.15765 10.0231 6.02175 9.7099L5.55801 8.64187C5.55203 8.62797 5.54351 8.61541 5.53663 8.60196V7.87823L6.37233 8.75071C6.45545 8.83757 6.56668 8.88541 6.68538 8.88541C6.80543 8.88541 6.91755 8.83667 7.00097 8.74817L7.15556 8.58402C7.3209 8.40836 7.32374 8.12042 7.16168 7.94177Z" fill="#7D7D7D"/>
<path d="M4.25369 3.49073C5.07832 3.49073 5.74913 2.81993 5.74913 1.99529C5.74913 1.1708 5.07832 0.5 4.25369 0.5C3.4292 0.5 2.75854 1.1708 2.75854 1.99529C2.7584 2.81993 3.4292 3.49073 4.25369 3.49073Z" fill="#7D7D7D"/>
</svg>
