<svg width="24" height="22" viewBox="0 0 24 22" fill="none" xmlns="http://www.w3.org/2000/svg">
<path d="M17.5312 0.838501C15.5348 0.838501 13.7847 1.7287 12.4701 3.41292C12.2948 3.63755 12.1385 3.86227 12 4.07991C11.8615 3.86222 11.7052 3.63755 11.5299 3.41292C10.2153 1.7287 8.46516 0.838501 6.46875 0.838501C2.69738 0.838501 0 3.99633 0 7.78556C0 12.1184 3.55111 16.2018 11.5142 21.0259C11.6635 21.1163 11.8318 21.1615 12 21.1615C12.1682 21.1615 12.3365 21.1163 12.4858 21.0259C20.4489 16.2019 24 12.1184 24 7.78561C24 3.99834 21.3048 0.838501 17.5312 0.838501ZM19.648 13.1806C17.9902 15.0304 15.4849 16.9782 12 19.1255C8.51508 16.9782 6.00984 15.0304 4.35202 13.1807C2.68523 11.3209 1.875 9.55612 1.875 7.78561C1.875 5.0573 3.71878 2.7135 6.46875 2.7135C7.86919 2.7135 9.06328 3.32241 10.0179 4.52334C10.7812 5.48377 11.1028 6.4755 11.1051 6.48258C11.2272 6.87422 11.5898 7.14098 12 7.14098C12.4103 7.14098 12.7729 6.87427 12.895 6.48258C12.898 6.47311 13.2099 5.51231 13.9482 4.56656C14.9079 3.33694 16.1135 2.71345 17.5312 2.71345C20.2841 2.71345 22.125 5.0595 22.125 7.78556C22.125 9.55608 21.3148 11.3208 19.648 13.1806Z" fill="#FF525F"/>
<path d="M19.648 13.1806C17.9902 15.0304 15.4849 16.9782 12 19.1255C8.51508 16.9782 6.00984 15.0304 4.35202 13.1807C2.68523 11.3209 1.875 9.55612 1.875 7.78561C1.875 5.0573 3.71878 2.7135 6.46875 2.7135C7.86919 2.7135 9.06328 3.32241 10.0179 4.52334C10.7812 5.48377 11.1028 6.4755 11.1051 6.48258C11.2272 6.87422 11.5898 7.14098 12 7.14098C12.4103 7.14098 12.7729 6.87427 12.895 6.48258C12.898 6.47311 13.2099 5.51231 13.9482 4.56656C14.9079 3.33694 16.1135 2.71345 17.5312 2.71345C20.2841 2.71345 22.125 5.0595 22.125 7.78556C22.125 9.55608 21.3148 11.3208 19.648 13.1806Z" fill="#FF525F"/>
</svg>
