<?xml version="1.0" encoding="utf-8"?><svg viewBox="0 0 24 22" xmlns="http://www.w3.org/2000/svg" xmlns:xlink="http://www.w3.org/1999/xlink"><style>:root>svg{display:none}:root>svg:target{display:block}</style><svg viewBox="0 0 16 16" id="icon-arr" xmlns="http://www.w3.org/2000/svg"><path d="M10.75 14a.499.499 0 01-.353-.146l-5.5-5.5a.5.5 0 010-.707l5.5-5.5a.5.5 0 11.707.707L5.957 8l5.147 5.146a.5.5 0 01-.354.854z"/></svg><svg viewBox="0 0 16 16" id="icon-arr-l" xmlns="http://www.w3.org/2000/svg"><path d="M10.75 14a.499.499 0 01-.353-.146l-5.5-5.5a.5.5 0 010-.707l5.5-5.5a.5.5 0 11.707.707L5.957 8l5.147 5.146a.5.5 0 01-.354.854z"/></svg><svg viewBox="0 0 16 16" id="icon-arr-r" xmlns="http://www.w3.org/2000/svg"><path d="M5.25 14a.499.499 0 00.353-.146l5.5-5.5a.5.5 0 000-.707l-5.5-5.5a.5.5 0 10-.707.707L10.043 8l-5.147 5.146A.5.5 0 005.25 14z"/></svg><svg viewBox="0 0 16 16" id="icon-double-arr" xmlns="http://www.w3.org/2000/svg"><path d="M8.802 15.5a.5.5 0 00.385-.82L3.65 8l5.537-6.68a.5.5 0 00-.77-.638l-5.802 7a.5.5 0 000 .638l5.802 7a.5.5 0 00.385.18z"/><path d="M13 15.5a.5.5 0 00.385-.82L7.845 8l5.54-6.68a.5.5 0 10-.77-.638l-5.803 7a.5.5 0 000 .638l5.803 7a.5.5 0 00.385.18z"/></svg><svg viewBox="0 0 16 16" id="icon-double-arr-l" xmlns="http://www.w3.org/2000/svg"><path d="M8.802 15.5a.5.5 0 00.385-.82L3.65 8l5.537-6.68a.5.5 0 00-.77-.638l-5.802 7a.5.5 0 000 .638l5.802 7a.5.5 0 00.385.18z"/><path d="M13 15.5a.5.5 0 00.385-.82L7.845 8l5.54-6.68a.5.5 0 10-.77-.638l-5.803 7a.5.5 0 000 .638l5.803 7a.5.5 0 00.385.18z"/></svg><svg viewBox="0 0 16 16" id="icon-double-arr-r" xmlns="http://www.w3.org/2000/svg"><path d="M7.198 15.5a.5.5 0 01-.385-.82L12.35 8 6.813 1.32a.5.5 0 01.77-.638l5.802 7a.5.5 0 010 .638l-5.802 7a.5.5 0 01-.385.18z"/><path d="M3 15.5a.5.5 0 01-.385-.82L8.155 8l-5.54-6.68a.5.5 0 11.77-.638l5.803 7a.5.5 0 010 .638l-5.803 7A.5.5 0 013 15.5z"/></svg><svg viewBox="0 0 24 22" id="icon-heart" xmlns="http://www.w3.org/2000/svg"><path d="M17.531.839c-1.996 0-3.746.89-5.06 2.574A8.52 8.52 0 0012 4.08a8.51 8.51 0 00-.47-.667C10.215 1.729 8.465.839 6.469.839 2.697.839 0 3.996 0 7.786c0 4.332 3.551 8.416 11.514 13.24a.937.937 0 00.972 0C20.449 16.202 24 12.118 24 7.786 24 3.998 21.305.839 17.531.839zm2.117 12.342c-1.658 1.85-4.163 3.797-7.648 5.944-3.485-2.147-5.99-4.095-7.648-5.944-1.667-1.86-2.477-3.625-2.477-5.395 0-2.729 1.844-5.072 4.594-5.072 1.4 0 2.594.608 3.549 1.81a6.957 6.957 0 011.087 1.959.937.937 0 001.79 0c.003-.01.315-.97 1.053-1.916.96-1.23 2.165-1.854 3.583-1.854 2.753 0 4.594 2.346 4.594 5.073 0 1.77-.81 3.535-2.477 5.395z"/></svg><svg viewBox="0 0 16 16" id="icon-zoom-in" xmlns="http://www.w3.org/2000/svg"><g clip-path="url(#ha)"><path d="M16 7.493H8.5V0h-1v7.493H0v.999h7.5v7.492h1V8.492H16v-1z"/></g><defs><clipPath id="ha"><path d="M0 0h16v16H0z"/></clipPath></defs></svg><svg viewBox="0 0 16 2" id="icon-zoom-out" xmlns="http://www.w3.org/2000/svg"><path d="M16 .516H0v.968h16V.516z"/></svg></svg>