<svg width="24" height="22" viewBox="0 0 24 22" fill="none" xmlns="http://www.w3.org/2000/svg">
<path d="M17.5313 0.838473C15.5348 0.838473 13.7847 1.72868 12.4701 3.41289C12.2948 3.63752 12.1385 3.86224 12 4.07988C11.8615 3.86219 11.7052 3.63752 11.5299 3.41289C10.2153 1.72868 8.46516 0.838473 6.46875 0.838473C2.69738 0.838473 0 3.9963 0 7.78553C0 12.1183 3.55111 16.2018 11.5142 21.0258C11.6635 21.1163 11.8318 21.1615 12 21.1615C12.1682 21.1615 12.3365 21.1163 12.4858 21.0259C20.4489 16.2018 24 12.1184 24 7.78558C24 3.99832 21.3048 0.838473 17.5313 0.838473ZM19.648 13.1806C17.9902 15.0304 15.4849 16.9781 12 19.1254C8.51508 16.9781 6.00984 15.0304 4.35202 13.1807C2.68523 11.3208 1.875 9.5561 1.875 7.78558C1.875 5.05727 3.71878 2.71347 6.46875 2.71347C7.86919 2.71347 9.06328 3.32238 10.0179 4.52332C10.7812 5.48374 11.1028 6.47547 11.1051 6.48255C11.2272 6.87419 11.5898 7.14096 12 7.14096C12.4103 7.14096 12.7729 6.87424 12.895 6.48255C12.898 6.47308 13.2099 5.51228 13.9482 4.56653C14.9079 3.33691 16.1135 2.71343 17.5313 2.71343C20.2841 2.71343 22.125 5.05947 22.125 7.78553C22.125 9.55605 21.3148 11.3208 19.648 13.1806Z" fill="#DEDEDE"/>
</svg>
