<svg width="16" height="16" viewBox="0 0 16 16" fill="none" xmlns="http://www.w3.org/2000/svg">
<g clip-path="url(#clip0_788_178)">
<path d="M7.50178 4.74385L5.95183 6.2938C5.38079 6.86484 4.80649 7.43587 4.23872 8.01344C4.10493 8.15048 4.00378 8.33322 3.96462 8.51268C3.75905 9.45571 3.56 10.3987 3.36096 11.3418L3.25001 11.8638C3.1978 12.1184 3.26633 12.3729 3.43927 12.5458C3.57305 12.6796 3.75905 12.7547 3.95483 12.7547C4.0103 12.7547 4.06578 12.7481 4.12125 12.7383L4.69555 12.6176C5.60921 12.4251 6.52613 12.2293 7.43978 12.0401C7.65188 11.9944 7.83135 11.8997 7.98471 11.7464C10.5495 9.17835 13.1142 6.61358 15.679 4.05208C15.8683 3.86282 15.9727 3.63767 15.9988 3.36031C16.0021 3.31463 15.9988 3.26894 15.989 3.22652C15.9727 3.16126 15.9596 3.09274 15.9433 3.02748C15.9074 2.86106 15.8683 2.6718 15.79 2.48907C15.3103 1.39268 14.5141 0.609548 13.4242 0.169034C13.2056 0.0809316 12.9739 0.051564 12.7716 0.0254595L12.7162 0.0189334C12.4225 -0.0169603 12.1549 0.0809316 11.9232 0.315872C10.4549 1.79078 8.97669 3.26894 7.50178 4.74385ZM12.6085 0.805331C12.615 0.805331 12.6183 0.805331 12.6248 0.805331L12.6803 0.811858C12.8499 0.831436 13.0066 0.851014 13.1306 0.903223C14.0181 1.26216 14.6707 1.90172 15.0656 2.80233C15.1112 2.90674 15.1406 3.04053 15.17 3.18084C15.1798 3.23305 15.1928 3.28526 15.2026 3.33747C15.1896 3.3962 15.1667 3.43536 15.121 3.47778C12.553 6.03928 9.98823 8.60731 7.42347 11.1721C7.38105 11.2145 7.34189 11.2341 7.28316 11.2471C6.36624 11.4397 5.45258 11.6322 4.53566 11.8247L4.05272 11.9258L4.14409 11.4984C4.34314 10.5586 4.54218 9.6156 4.74449 8.67584C4.75102 8.64647 4.77712 8.60079 4.80649 8.56816C5.37426 7.99386 5.94204 7.42282 6.51307 6.85505L8.06303 5.30509C9.5412 3.82693 11.0194 2.34876 12.4943 0.86733C12.5563 0.815121 12.5856 0.805331 12.6085 0.805331Z" fill="#4CAF50"/>
<path d="M1.26933 3.56931H6.96664C7.18853 3.56931 7.36799 3.38985 7.36799 3.16796C7.36799 2.94607 7.18853 2.7666 6.96664 2.7666H1.26933C0.567773 2.7666 0 3.33764 0 4.03593V14.7192C0 15.4208 0.571036 15.9885 1.26933 15.9885H11.9493C12.6509 15.9885 13.2187 15.4175 13.2187 14.7192V9.25357C13.2187 9.03168 13.0392 8.85221 12.8173 8.85221C12.5954 8.85221 12.416 9.03168 12.416 9.25357V14.7192C12.416 14.977 12.2039 15.1891 11.9461 15.1891H1.26933C1.01155 15.1891 0.79945 14.977 0.79945 14.7192V4.0392C0.79945 3.78141 1.01155 3.56931 1.26933 3.56931Z" fill="#4CAF50"/>
</g>
<defs>
<clipPath id="clip0_788_178">
<rect width="16" height="16" fill="white"/>
</clipPath>
</defs>
</svg>
