<svg width="18" height="19" viewBox="0 0 18 19" fill="none" xmlns="http://www.w3.org/2000/svg">
<g clip-path="url(#clip0_1058_738)">
<path d="M17.7801 6.24144C17.6417 6.13512 17.4622 6.10025 17.2924 6.14412L13.6288 7.12119C13.9179 6.41019 14.0625 5.8235 14.0625 5.34594C14.0625 2.67406 11.7917 0.5 9 0.5C6.20831 0.5 3.9375 2.67406 3.9375 5.34594C3.9375 5.8235 4.08206 6.41019 4.37119 7.12063L0.707625 6.14356C0.538875 6.09912 0.358875 6.13456 0.219938 6.24088C0.0815625 6.34775 0 6.51256 0 6.6875V16.8125C0 17.0673 0.171562 17.2906 0.417375 17.3559L4.63612 18.4809C4.68337 18.4932 4.73006 18.4989 4.77619 18.4994C4.77787 18.4994 4.779 18.5 4.78069 18.5H4.78125H4.78181C4.7835 18.5 4.78463 18.4994 4.78631 18.4994C4.833 18.4989 4.87969 18.4932 4.92638 18.4809L9 17.3947L13.0736 18.4809C13.1209 18.4932 13.1676 18.4989 13.2137 18.4994C13.2154 18.4994 13.2165 18.5 13.2182 18.5H13.2188H13.2193C13.221 18.5 13.2221 18.4994 13.2238 18.4994C13.2705 18.4989 13.3172 18.4932 13.3639 18.4809L17.5826 17.3559C17.8284 17.2906 18 17.0673 18 16.8125V6.6875C18 6.51256 17.9184 6.34775 17.7801 6.24144ZM4.5 17.2805L1.125 16.3805V7.41988L4.5 8.31988V17.2805ZM8.71875 16.3057L5.0625 17.2805V8.5595C6.39563 11.0216 8.46338 13.6648 8.55787 13.7851C8.56969 13.8003 8.58825 13.8059 8.60119 13.82C8.61975 13.8391 8.63044 13.8633 8.65238 13.8802C8.67319 13.8965 8.69681 13.9032 8.71875 13.9162V16.3057ZM12.9375 17.2799L9.28125 16.3051V13.9156C9.30319 13.9027 9.32738 13.8959 9.34762 13.8796C9.369 13.8628 9.38025 13.8391 9.39881 13.8194C9.41175 13.8059 9.43031 13.7998 9.44212 13.7846C9.53662 13.6642 11.6044 11.021 12.9375 8.55894V17.2799ZM12.2524 7.439C12.2524 7.43956 12.2518 7.43956 12.2513 7.44012C11.3349 9.30031 9.76275 11.4873 9 12.5082C8.23725 11.4873 6.66563 9.302 5.74875 7.44012C5.74875 7.43956 5.74819 7.439 5.74763 7.43844C5.18175 6.29038 5.0625 5.66656 5.0625 5.34594C5.0625 3.2945 6.82931 1.625 9 1.625C11.1707 1.625 12.9375 3.2945 12.9375 5.34594C12.9375 5.66656 12.8182 6.29038 12.2524 7.439ZM16.875 16.3805L13.5 17.2805V8.31988L16.875 7.41988V16.3805Z" fill="#4CAF50"/>
<path d="M8.9999 3.59375C7.94521 3.59375 7.0874 4.44088 7.0874 5.48206C7.0874 6.52325 7.94521 7.37037 8.9999 7.37037C10.0546 7.37037 10.9124 6.52325 10.9124 5.48206C10.9124 4.44088 10.0546 3.59375 8.9999 3.59375ZM8.9999 6.24537C8.56565 6.24537 8.2124 5.90281 8.2124 5.48206C8.2124 5.06131 8.56565 4.71875 8.9999 4.71875C9.43415 4.71875 9.7874 5.06131 9.7874 5.48206C9.7874 5.90338 9.43415 6.24537 8.9999 6.24537Z" fill="#4CAF50"/>
</g>
<defs>
<clipPath id="clip0_1058_738">
<rect width="18" height="18" fill="white" transform="translate(0 0.5)"/>
</clipPath>
</defs>
</svg>
