<svg width="16" height="17" viewBox="0 0 16 17" fill="none" xmlns="http://www.w3.org/2000/svg">
<path d="M9.07025 8L13.9214 3.14911C14.0258 3.04456 14.0258 2.87517 13.9214 2.77062L13.2295 2.07838C13.1793 2.02832 13.1111 2 13.0402 2C12.9691 2 12.901 2.02832 12.8508 2.07838L7.99978 6.9294L3.14876 2.07838C3.04826 1.97788 2.87039 1.978 2.77015 2.07838L2.07841 2.77062C1.97386 2.87517 1.97386 3.04456 2.07841 3.14911L6.92943 8L2.07841 12.8509C1.97386 12.9554 1.97386 13.1248 2.07841 13.2294L2.77027 13.9216C2.82046 13.9717 2.8886 14 2.95964 14C3.03069 14 3.0987 13.9717 3.14888 13.9216L7.99991 9.0706L12.8509 13.9216C12.9011 13.9717 12.9694 14 13.0403 14C13.1112 14 13.1795 13.9717 13.2297 13.9216L13.9215 13.2294C14.0259 13.1248 14.0259 12.9554 13.9215 12.8509L9.07025 8Z" fill="#333333"/>
</svg>
