<svg width="16" height="17" viewBox="0 0 16 17" fill="none" xmlns="http://www.w3.org/2000/svg">
<path d="M14.9287 1.57157C13.5002 0.143087 11.1758 0.142792 9.7471 1.57079L9.74739 1.57108L7.48701 3.83185L8.53039 4.87504L10.7912 2.61377L10.791 2.61358C11.6446 1.76142 13.0323 1.76191 13.8853 2.61495C14.7384 3.46799 14.7383 4.85635 13.8853 5.70968L10.493 9.10177C10.0798 9.51511 9.53029 9.74273 8.9458 9.74273C8.3613 9.74273 7.81172 9.51511 7.39848 9.10177L6.3551 10.1451C7.04712 10.8371 7.96724 11.2182 8.9459 11.2182C9.92455 11.2182 10.8447 10.8371 11.5364 10.1451L14.9288 6.75296C16.357 5.32418 16.357 2.99977 14.9287 1.57157Z" fill="#4CAF50"/>
<path d="M5.20968 14.3855C4.35635 15.2383 2.96809 15.2381 2.11495 14.385C1.26181 13.5316 1.26181 12.1431 2.11485 11.2899L5.50675 7.89796C6.36008 7.04472 7.74844 7.04472 8.60157 7.89796L9.64505 6.85468C8.21637 5.42609 5.89195 5.426 4.46347 6.85468L1.07138 10.2466C-0.356816 11.6752 -0.356816 13.9997 1.07147 15.4284C1.78591 16.1427 2.72414 16.4999 3.66256 16.4998C4.60059 16.4998 5.53882 16.1428 6.25286 15.4288L6.25306 15.4288L8.51393 13.1673L7.47045 12.124L5.20968 14.3855Z" fill="#4CAF50"/>
</svg>
