<svg width="24" height="18" viewBox="0 0 24 18" fill="none" xmlns="http://www.w3.org/2000/svg">
<path d="M23.2 0H0.800002C0.3582 0 0 0.3582 0 0.799995C0 1.24179 0.3582 1.6 0.800002 1.6H23.2C23.6418 1.6 24 1.2418 24 0.799995C24 0.358192 23.6418 0 23.2 0Z" fill="#7D7D7D"/>
<path d="M23.2 7.99998H0.800002C0.3582 7.99998 0 8.35819 0 8.79999C0 9.24178 0.3582 9.59999 0.800002 9.59999H23.2C23.6418 9.59999 24 9.24178 24 8.79999C24 8.35819 23.6418 7.99998 23.2 7.99998Z" fill="#7D7D7D"/>
<path d="M23.2 16H0.800002C0.3582 16 0 16.3582 0 16.8C0 17.2418 0.3582 17.6 0.800002 17.6H23.2C23.6418 17.6 24 17.2418 24 16.8C24 16.3582 23.6418 16 23.2 16Z" fill="#7D7D7D"/>
</svg>
