<svg width="126" height="30" viewBox="0 0 126 30" fill="none" xmlns="http://www.w3.org/2000/svg">
<path d="M11.476 16C11.476 17.28 11.316 18.432 10.996 19.456C10.676 20.48 10.2067 21.3493 9.588 22.064C8.98 22.768 8.21733 23.312 7.3 23.696C6.39333 24.0693 5.348 24.256 4.164 24.256C3.09733 24.256 1.99867 24.1067 0.868 23.808L1.06 21.792C1.08133 21.6 1.15067 21.4453 1.268 21.328C1.396 21.2 1.58267 21.136 1.828 21.136C2.00933 21.136 2.25467 21.184 2.564 21.28C2.884 21.3653 3.3 21.408 3.812 21.408C4.49467 21.408 5.09733 21.3067 5.62 21.104C6.15333 20.9013 6.60133 20.5867 6.964 20.16C7.32667 19.7227 7.59867 19.168 7.78 18.496C7.972 17.824 8.068 17.0187 8.068 16.08V1.024H11.476V16ZM22.6513 7.488C23.8459 7.488 24.9233 7.68533 25.8833 8.08C26.8539 8.464 27.6753 9.024 28.3473 9.76C29.0299 10.4853 29.5526 11.3653 29.9153 12.4C30.2779 13.424 30.4593 14.576 30.4593 15.856C30.4593 17.136 30.2779 18.2933 29.9153 19.328C29.5526 20.3627 29.0299 21.2427 28.3473 21.968C27.6753 22.6933 26.8539 23.2533 25.8833 23.648C24.9233 24.032 23.8459 24.224 22.6513 24.224C21.4459 24.224 20.3579 24.032 19.3873 23.648C18.4273 23.2533 17.6059 22.6933 16.9233 21.968C16.2406 21.2427 15.7126 20.3627 15.3393 19.328C14.9766 18.2933 14.7953 17.136 14.7953 15.856C14.7953 14.576 14.9766 13.424 15.3393 12.4C15.7126 11.3653 16.2406 10.4853 16.9233 9.76C17.6059 9.024 18.4273 8.464 19.3873 8.08C20.3579 7.68533 21.4459 7.488 22.6513 7.488ZM22.6513 21.792C24.1873 21.792 25.3339 21.2747 26.0913 20.24C26.8486 19.2053 27.2273 17.7493 27.2273 15.872C27.2273 13.9947 26.8486 12.5387 26.0913 11.504C25.3339 10.4587 24.1873 9.936 22.6513 9.936C21.0939 9.936 19.9313 10.4587 19.1633 11.504C18.4059 12.5387 18.0273 13.9947 18.0273 15.872C18.0273 17.7493 18.4059 19.2053 19.1633 20.24C19.9313 21.2747 21.0939 21.792 22.6513 21.792ZM47.6188 7.744L38.5948 28.72C38.4988 28.9547 38.3708 29.136 38.2108 29.264C38.0508 29.392 37.8161 29.456 37.5068 29.456H35.1868L38.1628 22.976L31.4908 7.744H34.2108C34.4774 7.744 34.6854 7.808 34.8348 7.936C34.9841 8.064 35.0908 8.208 35.1548 8.368L39.2828 18.128C39.3681 18.3733 39.4481 18.624 39.5228 18.88C39.6081 19.1253 39.6774 19.3707 39.7308 19.616C39.8054 19.36 39.8854 19.1093 39.9708 18.864C40.0561 18.608 40.1468 18.3573 40.2428 18.112L44.2268 8.368C44.3014 8.18667 44.4188 8.03733 44.5788 7.92C44.7388 7.80267 44.9201 7.744 45.1228 7.744H47.6188Z" fill="#4CAF50"/>
<path d="M80.207 1.024L73.039 24H69.967L64.367 6.96C64.239 6.61867 64.127 6.208 64.031 5.728C63.9137 6.21867 63.8017 6.62933 63.695 6.96L58.031 24H54.975L47.807 1.024H50.655C50.9537 1.024 51.2043 1.09867 51.407 1.248C51.6097 1.38667 51.743 1.57867 51.807 1.824L56.335 17.2C56.4203 17.4987 56.495 17.824 56.559 18.176C56.6337 18.528 56.7083 18.896 56.783 19.28C56.8577 18.896 56.9323 18.528 57.007 18.176C57.0923 17.824 57.1883 17.4987 57.295 17.2L62.479 1.824C62.543 1.61067 62.6763 1.424 62.879 1.264C63.0923 1.104 63.343 1.024 63.631 1.024H64.607C64.9057 1.024 65.151 1.09867 65.343 1.248C65.535 1.39733 65.6737 1.58933 65.759 1.824L70.927 17.2C71.119 17.7867 71.2897 18.4533 71.439 19.2C71.567 18.464 71.7057 17.7973 71.855 17.2L76.399 1.824C76.4523 1.61067 76.5857 1.424 76.799 1.264C77.0123 1.104 77.263 1.024 77.551 1.024H80.207ZM87.9013 7.488C89.0959 7.488 90.1733 7.68533 91.1333 8.08C92.1039 8.464 92.9253 9.024 93.5973 9.76C94.2799 10.4853 94.8026 11.3653 95.1653 12.4C95.5279 13.424 95.7093 14.576 95.7093 15.856C95.7093 17.136 95.5279 18.2933 95.1653 19.328C94.8026 20.3627 94.2799 21.2427 93.5973 21.968C92.9253 22.6933 92.1039 23.2533 91.1333 23.648C90.1733 24.032 89.0959 24.224 87.9013 24.224C86.6959 24.224 85.6079 24.032 84.6373 23.648C83.6773 23.2533 82.8559 22.6933 82.1733 21.968C81.4906 21.2427 80.9626 20.3627 80.5893 19.328C80.2266 18.2933 80.0453 17.136 80.0453 15.856C80.0453 14.576 80.2266 13.424 80.5893 12.4C80.9626 11.3653 81.4906 10.4853 82.1733 9.76C82.8559 9.024 83.6773 8.464 84.6373 8.08C85.6079 7.68533 86.6959 7.488 87.9013 7.488ZM87.9013 21.792C89.4373 21.792 90.5839 21.2747 91.3413 20.24C92.0986 19.2053 92.4773 17.7493 92.4773 15.872C92.4773 13.9947 92.0986 12.5387 91.3413 11.504C90.5839 10.4587 89.4373 9.936 87.9013 9.936C86.3439 9.936 85.1813 10.4587 84.4133 11.504C83.6559 12.5387 83.2773 13.9947 83.2773 15.872C83.2773 17.7493 83.6559 19.2053 84.4133 20.24C85.1813 21.2747 86.3439 21.792 87.9013 21.792ZM102.136 10.864C102.659 9.79733 103.288 8.96 104.024 8.352C104.76 7.744 105.645 7.44 106.68 7.44C107.032 7.44 107.363 7.48267 107.672 7.568C107.992 7.64267 108.269 7.76 108.504 7.92L108.296 10.272C108.221 10.56 108.045 10.704 107.768 10.704C107.619 10.704 107.395 10.6773 107.096 10.624C106.797 10.56 106.477 10.528 106.136 10.528C105.635 10.528 105.192 10.6027 104.808 10.752C104.424 10.8907 104.077 11.104 103.768 11.392C103.469 11.6693 103.203 12.016 102.968 12.432C102.733 12.8373 102.515 13.3013 102.312 13.824V24H99.192V7.744H100.984C101.325 7.744 101.555 7.808 101.672 7.936C101.8 8.05333 101.891 8.26667 101.944 8.576L102.136 10.864ZM114.031 0.383999V14.192H114.767C114.991 14.192 115.177 14.16 115.327 14.096C115.476 14.032 115.631 13.904 115.791 13.712L120.655 8.352C120.804 8.14933 120.969 8 121.151 7.904C121.332 7.79733 121.561 7.744 121.839 7.744H124.687L118.943 14.032C118.633 14.4267 118.303 14.7307 117.951 14.944C118.153 15.0827 118.329 15.2427 118.479 15.424C118.639 15.6053 118.793 15.8027 118.943 16.016L125.055 24H122.255C121.999 24 121.775 23.9573 121.583 23.872C121.401 23.7867 121.236 23.632 121.087 23.408L116.063 16.88C115.903 16.6347 115.743 16.48 115.583 16.416C115.423 16.3413 115.183 16.304 114.863 16.304H114.031V24H110.911V0.383999H114.031Z" fill="black"/>
</svg>
