<svg width="24" height="24" viewBox="0 0 24 24" fill="none" xmlns="http://www.w3.org/2000/svg">
<path d="M17.5312 1.8385C15.5348 1.8385 13.7847 2.7287 12.4701 4.41292C12.2948 4.63755 12.1385 4.86227 12 5.07991C11.8615 4.86222 11.7052 4.63755 11.5299 4.41292C10.2153 2.7287 8.46516 1.8385 6.46875 1.8385C2.69738 1.8385 0 4.99633 0 8.78556C0 13.1184 3.55111 17.2018 11.5142 22.0259C11.6635 22.1163 11.8318 22.1615 12 22.1615C12.1682 22.1615 12.3365 22.1163 12.4858 22.0259C20.4489 17.2019 24 13.1184 24 8.78561C24 4.99834 21.3048 1.8385 17.5312 1.8385ZM19.648 14.1806C17.9902 16.0304 15.4849 17.9782 12 20.1255C8.51508 17.9782 6.00984 16.0304 4.35202 14.1807C2.68523 12.3209 1.875 10.5561 1.875 8.78561C1.875 6.0573 3.71878 3.7135 6.46875 3.7135C7.86919 3.7135 9.06328 4.32241 10.0179 5.52334C10.7812 6.48377 11.1028 7.4755 11.1051 7.48258C11.2272 7.87422 11.5898 8.14098 12 8.14098C12.4103 8.14098 12.7729 7.87427 12.895 7.48258C12.898 7.47311 13.2099 6.51231 13.9482 5.56656C14.9079 4.33694 16.1135 3.71345 17.5312 3.71345C20.2841 3.71345 22.125 6.0595 22.125 8.78556C22.125 10.5561 21.3148 12.3208 19.648 14.1806Z" fill="#FF525F"/>
</svg>
