<svg width="18" height="19" viewBox="0 0 18 19" fill="none" xmlns="http://www.w3.org/2000/svg">
<path d="M8.99999 8.75C8.80108 8.75 8.61031 8.82902 8.46966 8.96967C8.32901 9.11032 8.24999 9.30109 8.24999 9.5V11.75C8.24999 11.9489 8.32901 12.1397 8.46966 12.2803C8.61031 12.421 8.80108 12.5 8.99999 12.5C9.1989 12.5 9.38967 12.421 9.53032 12.2803C9.67097 12.1397 9.74999 11.9489 9.74999 11.75V9.5C9.74999 9.30109 9.67097 9.11032 9.53032 8.96967C9.38967 8.82902 9.1989 8.75 8.99999 8.75ZM8.99999 6.5C8.85166 6.5 8.70665 6.54399 8.58331 6.6264C8.45998 6.70881 8.36385 6.82594 8.30708 6.96299C8.25032 7.10003 8.23546 7.25083 8.2644 7.39632C8.29334 7.5418 8.36477 7.67544 8.46966 7.78033C8.57455 7.88522 8.70819 7.95665 8.85367 7.98559C8.99916 8.01453 9.14996 7.99968 9.287 7.94291C9.42405 7.88614 9.54118 7.79001 9.62359 7.66668C9.706 7.54334 9.74999 7.39834 9.74999 7.25C9.74999 7.05109 9.67097 6.86032 9.53032 6.71967C9.38967 6.57902 9.1989 6.5 8.99999 6.5ZM8.99999 2C8.01508 2 7.03981 2.19399 6.12986 2.5709C5.21992 2.94781 4.39313 3.50026 3.69669 4.1967C2.29017 5.60322 1.49999 7.51088 1.49999 9.5C1.49343 11.2319 2.09309 12.9114 3.19499 14.2475L1.69499 15.7475C1.59092 15.853 1.52043 15.9869 1.4924 16.1324C1.46436 16.2779 1.48006 16.4284 1.53749 16.565C1.59978 16.6999 1.70077 16.8133 1.82763 16.8908C1.95448 16.9682 2.10149 17.0063 2.24999 17H8.99999C10.9891 17 12.8968 16.2098 14.3033 14.8033C15.7098 13.3968 16.5 11.4891 16.5 9.5C16.5 7.51088 15.7098 5.60322 14.3033 4.1967C12.8968 2.79018 10.9891 2 8.99999 2ZM8.99999 15.5H4.05749L4.75499 14.8025C4.82586 14.733 4.88223 14.6502 4.92086 14.5588C4.95948 14.4674 4.97958 14.3692 4.97999 14.27C4.97717 14.0722 4.8963 13.8835 4.75499 13.745C3.77293 12.764 3.16137 11.4729 3.02451 10.0916C2.88765 8.71029 3.23395 7.32425 4.00441 6.16964C4.77487 5.01503 5.92183 4.16327 7.24988 3.75948C8.57792 3.35569 10.0049 3.42485 11.2877 3.95519C12.5704 4.48552 13.6296 5.44421 14.2848 6.66792C14.94 7.89163 15.1506 9.30466 14.8808 10.6663C14.611 12.0279 13.8775 13.2538 12.8051 14.1352C11.7328 15.0166 10.3881 15.4989 8.99999 15.5Z" fill="#757575"/>
</svg>
