<svg width="28" height="40" viewBox="0 0 28 40" fill="none" xmlns="http://www.w3.org/2000/svg">
<path d="M13.972 39.9999C16.6169 35.9239 27.0332 19.4573 27.0332 13.0499C27.0332 5.84277 21.1857 0 13.972 0C6.75863 0 0.910767 5.84277 0.910767 13.0499C0.910767 19.4587 11.3271 35.9239 13.972 39.9999ZM13.972 7.97492C16.7774 7.97492 19.0514 10.2469 19.0514 13.0499C19.0514 15.8528 16.7774 18.1248 13.972 18.1248C11.1669 18.1248 8.89263 15.8528 8.89263 13.0499C8.89581 10.2483 11.168 7.9781 13.972 7.97492Z" fill="#4CAF50"/>
<path d="M13.972 7.97492C16.7774 7.97492 19.0514 10.2469 19.0514 13.0499C19.0514 15.8528 16.7774 18.1248 13.972 18.1248C11.1669 18.1248 8.89263 15.8528 8.89263 13.0499C8.89581 10.2483 11.168 7.9781 13.972 7.97492Z" fill="white"/>
</svg>
